<?xml version="1.0" encoding="utf-8"?>
<!-- Generator: Adobe Illustrator 24.2.3, SVG Export Plug-In . SVG Version: 6.00 Build 0)  -->
<svg version="1.1" id="Layer_1" xmlns="http://www.w3.org/2000/svg" xmlns:xlink="http://www.w3.org/1999/xlink" x="0px" y="0px"
	 viewBox="0 0 70 56" style="enable-background:new 0 0 70 56;" xml:space="preserve">
<style type="text/css">
	.st0{fill:#B9275D;}
</style>
<path class="st0" d="M35,1.5c2.5,0,5,0,7.5,0c7.4,0,14.6,0,15.6,0c0,0,11,15.2,11,16c0,0.9-34.2,37-35,37c-1,0-33.2-36.8-33-38
	c0.1-0.8,10-15,10-15c1,0,8.8,0,16.5,0C30,1.5,32.5,1.5,35,1.5z M34.1,43.4c0.4,0,0.9,0,1.3,0.1c1.3-4.4,2.7-8.7,3.9-13.1
	c3.5-12.7,6.5-10.8-9-11c-2.4,0-3.3,0.7-2.6,3.2C30,29.5,32,36.4,34.1,43.4z M60.7,20.7c-0.2-0.4-0.4-0.9-0.6-1.3
	c-3.8,0-7.5,0-11.3,0c-1.3,0-2.3,0.5-2.7,1.8C44.1,28.1,42,34.9,40,41.8c0.4,0.2,0.8,0.4,1.2,0.6C47.7,35.1,54.2,27.9,60.7,20.7z
	 M8.4,20.1c6.8,7.6,13.4,14.9,20.7,23c0-5.2-1.7-8.8-2.7-12.4c-3.6-12.4-3.7-12.4-16.5-11.2C9.7,19.6,9.6,19.7,8.4,20.1z M19,5.5
	c0,0,4.8,7.7,5.6,7.5C25.2,13,30,5.5,30,5.5H19z M39,5.5c0,0,5.8,7.8,6.2,7.6C46,12.5,52,5.5,52,5.5H39z M20.7,15.1
	c-3.2-2.9-4-7.6-7.1-7.3C11.1,8,9.5,12,7.7,15.2C11.9,15.7,15.6,15.6,20.7,15.1z M41.1,15.2C39,12.1,37.7,7.9,35,7.8
	c-3.1,0-4.4,4.2-6.3,7.3C32.9,15.7,36.6,15.6,41.1,15.2z M49.5,15.1c4.5,0,8.2,0,12.9,0c-2.7-3-3.7-7.3-6.6-7.3
	C52.9,7.8,51.7,12,49.5,15.1z"/>
</svg>
