<?xml version="1.0" encoding="utf-8"?>
<!-- Generator: Adobe Illustrator 24.2.3, SVG Export Plug-In . SVG Version: 6.00 Build 0)  -->
<svg version="1.1" id="Ñëîé_2" xmlns="http://www.w3.org/2000/svg" xmlns:xlink="http://www.w3.org/1999/xlink" x="0px" y="0px"
	 viewBox="0 0 72 58" style="enable-background:new 0 0 72 58;" xml:space="preserve">
<style type="text/css">
	.st0{fill:#9C2B5A;}
	.st1{fill:#992B5C;}
	.st2{fill:#A72A46;}
</style>
<g>
	<path class="st0" d="M36.3,2.6c7.1,0,14.3-0.1,21.4,0c4.7,0.1,6.9,2.8,6.3,7.5c-0.1,1.2-0.1,2.5-1.7,2.5c-1.1,0-1.9-0.8-1.9-1.9
		c0.1-4.1-2.5-4.3-5.6-4.2c-12.6,0.1-25.2,0.2-37.9,0c-3.9-0.1-5.3,1.3-5.2,5.2c0.2,6.8,0.3,13.6,0,20.4c-0.2,4.5,1.7,5.7,5.9,5.6
		c7.1-0.3,14.3-0.1,21.4,0c1.4,0,3.4-0.4,3.5,1.7c0,2-1.9,2-3.4,2.1c-8.3,0-16.6,0.1-24.9-0.1c-4.1-0.1-6.3-2.5-6.2-6.8
		c0.1-8.3,0-16.6,0-24.9C8,4.4,9.8,2.7,14.9,2.6C22,2.5,29.2,2.6,36.3,2.6z"/>
	<path class="st1" d="M71,35.9c0,4.1-0.1,8.3,0,12.4c0.1,4.5-2.2,6.8-6.6,7c-3.8,0.2-7.6,0.1-11.4,0c-4.4-0.1-6.8-2.4-6.8-6.9
		c0-8.5-0.1-16.9,0-25.4c0-4.4,2.3-6.7,6.9-6.6c4,0.1,8,0,11.9,0c3.8,0.1,5.9,2,5.9,5.8C71.1,26.9,71,31.4,71,35.9
		C71,35.9,71,35.9,71,35.9z M67.1,35.9C67.2,35.9,67.2,35.9,67.1,35.9c0-1.2,0-2.3,0-3.5C66.8,18.7,70,20.6,54,20.5
		c-2.8,0-3.9,1.2-3.9,3.9c0,7.8,0,15.6,0,23.3c0,2.7,1.3,3.6,4,3.7c3.8,0.2,12.8,1.2,12.9-2.6c0-0.7,0.2-1.6,0.2-2.4
		C67.2,42.9,67.1,39.4,67.1,35.9z"/>
	<path class="st0" d="M22,44.5c5.5,0,11-0.1,16.4,0c1.5,0,4-0.7,4,1.6c0.1,2.5-2.5,2.2-4.2,2.2c-8.6,0.1-17.3,0-25.9,0
		c-1.3,0-2.7-0.1-4,0.1c-1.1,0.1-2.7-0.3-2.8,1.3c-0.1,1.9,1.7,1.7,3,1.7c9.3,0,18.6,0,27.9,0c1.3,0,2.7,0,4,0.1
		c1,0.1,2,0.4,2.1,1.6c0.1,1.2-0.9,1.7-1.9,2c-1,0.2-2,0.2-3,0.2c-9.6,0-19.2,0.1-28.9,0c-1.6,0-3.4-0.3-4.8-0.9
		c-3.1-1.4-3.3-4.3-3-7.3c0.3-3.3,2.9-2.6,5-2.6C11.3,44.5,16.6,44.5,22,44.5z"/>
	<circle class="st2" cx="58.9" cy="46.6" r="2"/>
</g>
</svg>
