<?xml version="1.0" encoding="utf-8"?>
<!-- Generator: Adobe Illustrator 24.2.3, SVG Export Plug-In . SVG Version: 6.00 Build 0)  -->
<svg version="1.1" id="Layer_1" xmlns="http://www.w3.org/2000/svg" xmlns:xlink="http://www.w3.org/1999/xlink" x="0px" y="0px"
	 viewBox="0 0 56 72" style="enable-background:new 0 0 56 72;" xml:space="preserve">
<style type="text/css">
	.st0{fill:#BD2761;}
	.st1{fill:#BF2762;}
	.st2{fill:#BC2761;}
	.st3{fill:#BB2760;}
	.st4{fill:#BD2760;}
	.st5{fill:#BE2760;}
	.st6{fill:#B5275C;}
</style>
<g>
	<path class="st0" d="M28,71.1c-4.7,0-9.3,0.1-14,0c-5.6-0.1-7-1.6-7.1-7.2c-0.1-3.5,0-7,0-10.5c0-1.3,0-2.9,2-2.8
		c1.5,0.1,1.6,1.5,1.6,2.7c0.1,3.3,0.2,6.7,0,10c-0.1,3.1,1,4.5,4.3,4.4c8.8-0.2,17.6-0.1,26.5,0c2.7,0,4-1,3.9-3.8
		c-0.1-3.5,0-7,0-10.5c0-1.4,0.2-2.9,2.1-2.7c1.5,0.1,1.6,1.5,1.6,2.7c0,4.2,0.2,8.3-0.1,12.5c-0.2,3.6-2.5,5.3-6,5.3
		C38,71.2,33,71.1,28,71.1C28,71.1,28,71.1,28,71.1z"/>
	<path class="st1" d="M28,0.9c4.7,0,9.3-0.1,14,0c5.2,0.2,7,2.1,7.2,7.4c0,2.2,0.1,4.3,0,6.5c0,1.4,0.3,3.5-1.7,3.5
		c-2.4,0-1.9-2.2-2-3.8c0-0.3,0-0.7,0-1c-0.1-9.9,1.2-8.8-9.2-8.8c-6.6,0-13.3,0.3-19.9-0.1c-4.5-0.2-6,1.5-5.6,5.8c0.2,2,0,4-0.1,6
		c-0.1,1-0.5,2.1-1.7,2.1c-1.2,0-1.7-1-1.7-2.1C7,12.7,6.8,9,7.2,5.4C7.6,2,10.5,1,13.5,0.9C18.3,0.8,23.1,0.9,28,0.9z"/>
	<path class="st0" d="M28.2,7.8c2.3,0,4.7,0,7,0c6.8,0,7.9,1.3,6.9,8c-0.2,1.2-0.3,2.5-1.7,2.6c-1.5,0.1-2.1-1.1-1.9-2.3
		c0.6-4.7-2.4-4.5-5.6-4.4c-3,0.1-6,0.1-9,0c-3.4-0.1-6.9-0.5-6.4,4.7c0.1,1-0.5,2-1.7,2c-1.3,0-1.5-1.1-1.7-2.1
		c-1.5-6.3,0.2-8.5,6.8-8.5C23.2,7.8,25.7,7.8,28.2,7.8z"/>
	<path class="st2" d="M27.8,57.5c-3.3,0-6.6,0-10,0c-3.4,0-4.2-1.9-3.9-4.9c0.1-0.8,0.3-1.7,1.2-2c0.9-0.3,1.8,0,2.1,0.9
		c0.8,2.7,3,2.1,4.9,2.1c4.1,0,8.3,0,12.4,0c1.1,0,2.5,0.4,3.3-0.6c0.9-1.1,1.1-3.2,3.1-2.1c1.6,0.8,1.1,2.6,0.9,4.1
		c-0.2,2.1-2,2.5-3.7,2.5C34.8,57.5,31.3,57.5,27.8,57.5z"/>
	<path class="st3" d="M54.1,34.6c-0.3,0.5-0.6,1.3-1.2,1.9c-3,3.1-6,6.1-9.1,9.2c-0.9,0.9-2,1.5-3,0.4c-1.1-1.1-0.3-2.1,0.5-3
		c2.4-3.1,7.7-5.1,7.3-8.8c-0.3-3-4.7-5.6-7.3-8.4c-0.7-0.8-1.3-1.7-0.6-2.7c0.6-1,1.9-1.1,2.6-0.3c3.6,3.4,7,7,10.5,10.5
		C53.9,33.6,53.9,34,54.1,34.6z"/>
	<path class="st4" d="M15.7,44.7c-0.8,2.4-2.2,2.3-3.5,1.1c-3.2-3.1-6.4-6.3-9.5-9.5c-1.1-1.1-1.2-2.4-0.1-3.5
		c3.1-3.2,6.3-6.4,9.5-9.5c0.9-0.9,2.1-1.3,3.1-0.2c1,1.2,0,2.2-0.8,3c-2,2-3.9,4.1-6,6c-2,1.8-1.8,3.1,0.1,4.8
		c2,1.8,3.8,3.7,5.6,5.6C14.8,43.1,15.3,44,15.7,44.7z"/>
	<path class="st5" d="M34.8,24.6c-0.1,0.3-0.4,1-0.7,1.6c-3,6.1-6.1,12.2-9.1,18.2c-0.6,1.2-1.4,2.7-3,1.8c-1.5-0.8-0.8-2.3-0.2-3.5
		c3-6.1,6-12.2,9.1-18.3c0.5-1.1,1.2-2.1,2.6-1.9C34.3,22.7,34.9,23.3,34.8,24.6z"/>
	<path class="st6" d="M31.2,62.5c-0.5,1.9-2,2-3.5,1.9c-1.5,0-3.3-0.5-3-2.3c0.3-1.9,2.3-1.5,3.7-1.5C29.7,60.6,31.1,60.6,31.2,62.5
		z"/>
</g>
</svg>
